<?xml version="1.0" standalone="no"?>
<!DOCTYPE svg PUBLIC "-//W3C//DTD SVG 20010904//EN"
 "http://www.w3.org/TR/2001/REC-SVG-20010904/DTD/svg10.dtd">
<svg version="1.0" xmlns="http://www.w3.org/2000/svg"
 width="102.000000pt" height="131.000000pt" viewBox="0 0 102.000000 131.000000"
 preserveAspectRatio="xMidYMid meet">
<g transform="translate(0.000000,131.000000) scale(0.050000,-0.050000)"
fill="#1d0344" stroke="none">
<path d="M842 1857 c-108 -31 -271 -209 -302 -331 -22 -86 -35 -104 -81 -113
-255 -51 -257 -479 -3 -554 113 -33 454 -17 454 21 0 24 -41 32 -210 40 -229
11 -284 31 -330 120 -75 145 19 300 181 300 37 0 49 11 49 45 1 410 605 570
758 200 20 -49 34 -55 119 -58 244 -7 386 -258 261 -460 -63 -102 -141 -134
-358 -146 -273 -16 -275 -68 -3 -77 569 -17 706 665 154 767 -58 11 -105 42
-180 118 -139 141 -311 185 -509 128z"/>
<path d="M1000 897 l0 -284 -46 44 c-56 52 -94 55 -93 8 0 -37 147 -205 179
-205 32 0 179 168 179 205 1 49 -55 44 -100 -10 -37 -44 -38 -41 -38 240 -1
271 -3 285 -41 285 -38 0 -40 -13 -40 -283z"/>
</g>
</svg>
