<?xml version="1.0" standalone="no"?>
<!DOCTYPE svg PUBLIC "-//W3C//DTD SVG 20010904//EN"
 "http://www.w3.org/TR/2001/REC-SVG-20010904/DTD/svg10.dtd">
<svg version="1.0" xmlns="http://www.w3.org/2000/svg"
 width="95.000000pt" height="87.000000pt" viewBox="0 0 95.000000 87.000000"
 preserveAspectRatio="xMidYMid meet">
<g transform="translate(0.000000,87.000000) scale(0.050000,-0.050000)"
fill="#1d0344" stroke="none">
<path d="M660 1430 c-11 -29 -25 -72 -31 -96 -9 -38 -24 -44 -118 -44 -188 0
-191 -7 -191 -469 0 -536 -71 -481 627 -481 727 0 653 -53 653 468 0 472 0
472 -189 488 -107 9 -109 10 -135 91 l-26 83 -285 6 -286 5 -19 -51z m540 -45
c0 -8 5 -33 11 -55 11 -39 1 -40 -250 -40 -210 0 -259 5 -251 27 5 14 10 39
10 55 0 30 480 44 480 13z m260 -197 c0 -76 -335 -314 -355 -252 -28 82 -176
95 -255 23 -52 -48 -140 -10 -265 115 -138 138 -145 136 395 136 332 0 480 -7
480 -22z m-862 -247 c33 -23 87 -53 120 -67 33 -14 81 -57 107 -95 84 -124
231 -125 285 -2 11 26 65 68 123 95 56 27 144 93 195 148 l93 99 -6 -344 -5
-345 -550 0 -550 0 -5 380 -6 380 70 -103 c38 -57 96 -122 129 -146z m440 -58
c39 -77 -56 -149 -120 -91 -49 44 -48 79 4 115 48 34 91 24 116 -24z"/>
</g>
</svg>
