<?xml version="1.0" standalone="no"?>
<!DOCTYPE svg PUBLIC "-//W3C//DTD SVG 20010904//EN"
 "http://www.w3.org/TR/2001/REC-SVG-20010904/DTD/svg10.dtd">
<svg version="1.0" xmlns="http://www.w3.org/2000/svg"
 width="105.000000pt" height="116.000000pt" viewBox="0 0 105.000000 116.000000"
 preserveAspectRatio="xMidYMid meet">
<g transform="translate(0.000000,116.000000) scale(0.050000,-0.050000)"
fill="#1d0344" stroke="none">
<path d="M793 1589 l-273 -230 0 -336 c0 -412 -5 -403 237 -403 226 0 243 19
243 260 l0 180 120 0 120 0 0 -180 c0 -240 18 -260 238 -260 247 0 245 -5 238
410 l-6 339 -268 226 c-341 286 -304 286 -649 -6z m594 -62 l254 -213 -5 -302
-6 -302 -140 0 -140 0 -10 187 c-12 227 -27 243 -220 243 -193 0 -208 -16
-220 -243 l-10 -187 -140 0 -140 0 -6 303 -5 303 255 212 c140 117 260 212
266 212 7 0 127 -96 267 -213z"/>
</g>
</svg>
