<?xml version="1.0" standalone="no"?>
<!DOCTYPE svg PUBLIC "-//W3C//DTD SVG 20010904//EN"
 "http://www.w3.org/TR/2001/REC-SVG-20010904/DTD/svg10.dtd">
<svg version="1.0" xmlns="http://www.w3.org/2000/svg"
 width="71.000000pt" height="80.000000pt" viewBox="0 0 71.000000 80.000000"
 preserveAspectRatio="xMidYMid meet">
<g transform="translate(0.000000,80.000000) scale(0.050000,-0.050000)"
fill="#1d0344" stroke="none">
<path d="M320 1280 c0 -39 13 -40 400 -40 387 0 400 1 400 40 0 39 -13 40
-400 40 -387 0 -400 -1 -400 -40z"/>
<path d="M320 1040 c0 -39 13 -40 400 -40 387 0 400 1 400 40 0 39 -13 40
-400 40 -387 0 -400 -1 -400 -40z"/>
<path d="M320 760 c0 -39 13 -40 400 -40 387 0 400 1 400 40 0 39 -13 40 -400
40 -387 0 -400 -1 -400 -40z"/>
<path d="M320 480 c0 -39 13 -40 400 -40 387 0 400 1 400 40 0 39 -13 40 -400
40 -387 0 -400 -1 -400 -40z"/>
</g>
</svg>
